<svg width="96" height="64" viewBox="0 0 96 64" fill="none" xmlns="http://www.w3.org/2000/svg">
<rect opacity="0.05" width="96" height="64" rx="8" fill="#E0E0E0"/>
<g clip-path="url(#clip0_1_491)">
<path d="M58.8931 24.655C57.7776 24.2129 56.5985 23.991 55.4112 23.9999C51.5718 23.9999 48.8602 26.1036 48.841 29.1235C48.817 31.342 50.7679 32.5922 52.2437 33.3335C53.7579 34.0956 54.2642 34.5759 54.2594 35.2571C54.2498 36.2933 53.05 36.7631 51.9341 36.7631C50.4008 36.7631 49.5633 36.5308 48.2747 35.9488L47.7972 35.7061L47.2525 39.1827C48.1859 39.6055 49.8681 39.9683 51.6054 39.9996C55.6872 39.9996 58.3556 37.909 58.3868 34.696C58.4204 32.9237 57.3645 31.5848 55.1425 30.4781C53.7915 29.7603 52.954 29.2801 52.954 28.5519C52.954 27.9072 53.6715 27.2181 55.1713 27.2181C56.1694 27.1918 57.1614 27.3955 58.082 27.8158L58.442 27.9907L58.9867 24.6315L58.8931 24.655ZM68.8564 24.2818H65.8569C64.9234 24.2818 64.2203 24.5611 63.8124 25.5685L58.0436 39.783H62.1254L62.9413 37.4522L67.923 37.4574C68.0405 38.0029 68.4005 39.783 68.4005 39.783H71.9999L68.8564 24.2818ZM43.3194 24.1513H47.2093L44.776 39.6603H40.891L43.3194 24.1461V24.1513ZM33.4449 32.6993L33.8481 34.8526L37.6491 24.2818H41.7693L35.6478 39.7621H31.5372L28.1777 26.6543C28.1233 26.4382 27.9955 26.2526 27.8202 26.1349C26.6093 25.4546 25.3263 24.9383 23.9999 24.5976L24.0527 24.2713H30.3134C31.1629 24.3079 31.8468 24.5976 32.0747 25.5842L33.4425 32.7071V32.6993H33.4449ZM64.0571 34.281L65.6073 29.943C65.5881 29.99 65.9265 29.0478 66.1232 28.4657L66.3896 29.8047L67.2894 34.2784H64.0547V34.281H64.0571Z" fill="#E0E0E0"/>
</g>
<defs>
<clipPath id="clip0_1_491">
<rect width="48" height="48" fill="white" transform="translate(24 8)"/>
</clipPath>
</defs>
</svg>
